<?xml version="1.0" encoding="UTF-8"?>
<svg xmlns="http://www.w3.org/2000/svg" xmlns:xlink="http://www.w3.org/1999/xlink" width="483.873779pt" height="399.883423pt" viewBox="0 0 483.873779 399.883423" version="1.1">
<defs>
<clipPath id="clip1">
  <path d="M 105 364 L 121 364 L 121 399.882812 L 105 399.882812 Z M 105 364 "/>
</clipPath>
<clipPath id="clip2">
  <path d="M 361 273 L 483.875 273 L 483.875 390 L 361 390 Z M 361 273 "/>
</clipPath>
<clipPath id="clip3">
  <path d="M 0 311 L 90 311 L 90 399.882812 L 0 399.882812 Z M 0 311 "/>
</clipPath>
<clipPath id="clip4">
  <path d="M 107 342 L 152 342 L 152 399.882812 L 107 399.882812 Z M 107 342 "/>
</clipPath>
</defs>
<g id="surface1">
<g clip-path="url(#clip1)" clip-rule="nonzero">
<path style=" stroke:none;fill-rule:nonzero;fill:rgb(25.489807%,18.03894%,18.486023%);fill-opacity:1;" d="M 119.914062 364.988281 L 120.929688 385.902344 C 121.101562 389.4375 119.828125 392.894531 117.386719 395.511719 C 114.949219 398.128906 111.542969 399.695312 107.917969 399.863281 L 107.472656 399.882812 L 105.808594 365.640625 Z M 119.914062 364.988281 "/>
</g>
<path style=" stroke:none;fill-rule:nonzero;fill:rgb(90.194702%,90.194702%,90.194702%);fill-opacity:1;" d="M 424.6875 329.644531 C 414.476562 349.082031 401.527344 367.882812 385.140625 384.898438 C 384.777344 385.28125 384.410156 385.65625 384.039062 386.039062 L 345.21875 368.109375 C 345.457031 367.722656 345.714844 367.289062 345.996094 366.820312 C 362.671875 338.980469 463.335938 169.175781 460.15625 130.71875 C 460.527344 133.890625 472.457031 238.785156 424.6875 329.644531 Z M 424.6875 329.644531 "/>
<g clip-path="url(#clip2)" clip-rule="nonzero">
<path style=" stroke:none;fill-rule:nonzero;fill:rgb(90.194702%,90.194702%,90.194702%);fill-opacity:1;" d="M 392.632812 388.359375 C 392.085938 388.660156 391.53125 388.953125 390.96875 389.238281 L 361.847656 375.789062 C 362.253906 375.507812 362.730469 375.171875 363.273438 374.796875 C 372.195312 368.546875 398.726562 349.796875 424.6875 329.644531 C 452.582031 307.988281 479.828125 284.71875 483.875 273.613281 C 483.050781 276.160156 457.515625 353.582031 392.632812 388.359375 Z M 392.632812 388.359375 "/>
</g>
<g clip-path="url(#clip3)" clip-rule="nonzero">
<path style=" stroke:none;fill-rule:nonzero;fill:rgb(45.489502%,72.547913%,100%);fill-opacity:1;" d="M 44.945312 399.046875 C 69.765625 399.046875 89.886719 379.417969 89.886719 355.199219 C 89.886719 330.984375 69.765625 311.351562 44.945312 311.351562 C 20.121094 311.351562 0 330.984375 0 355.199219 C 0 379.417969 20.121094 399.046875 44.945312 399.046875 Z M 44.945312 399.046875 "/>
</g>
<path style=" stroke:none;fill-rule:nonzero;fill:rgb(100%,100%,100%);fill-opacity:1;" d="M 62.945312 336.800781 L 26.941406 336.800781 C 25.351562 336.800781 23.824219 337.417969 22.699219 338.515625 C 21.574219 339.613281 20.941406 341.101562 20.941406 342.652344 L 20.941406 367.746094 C 20.941406 369.296875 21.574219 370.785156 22.699219 371.882812 C 23.824219 372.980469 25.351562 373.597656 26.941406 373.601562 L 62.945312 373.601562 C 64.539062 373.597656 66.0625 372.980469 67.1875 371.882812 C 68.3125 370.785156 68.945312 369.296875 68.949219 367.746094 L 68.949219 342.652344 C 68.945312 341.101562 68.3125 339.613281 67.1875 338.515625 C 66.0625 337.417969 64.539062 336.800781 62.945312 336.800781 Z M 62.945312 340.144531 C 63.160156 340.144531 63.375 340.171875 63.582031 340.226562 L 44.949219 354.730469 L 26.421875 340.195312 C 26.59375 340.160156 26.765625 340.144531 26.941406 340.144531 Z M 62.945312 370.253906 L 26.941406 370.253906 C 26.257812 370.253906 25.605469 369.988281 25.121094 369.519531 C 24.640625 369.046875 24.371094 368.410156 24.367188 367.746094 L 24.367188 342.878906 L 43.871094 358.175781 C 44.171875 358.414062 44.550781 358.542969 44.941406 358.546875 C 45.332031 358.546875 45.707031 358.417969 46.011719 358.179688 L 65.519531 343 L 65.519531 367.746094 C 65.519531 368.410156 65.246094 369.046875 64.765625 369.519531 C 64.28125 369.988281 63.628906 370.253906 62.945312 370.253906 Z M 62.945312 370.253906 "/>
<path style=" stroke:none;fill-rule:nonzero;fill:rgb(100%,72.155762%,72.155762%);fill-opacity:1;" d="M 218.390625 291.894531 L 228.449219 291.972656 C 229.464844 291.984375 230.472656 291.773438 231.398438 291.363281 C 232.328125 290.953125 233.148438 290.351562 233.8125 289.597656 C 234.476562 288.84375 234.964844 287.960938 235.238281 287.003906 C 235.515625 286.046875 235.574219 285.046875 235.414062 284.066406 C 235.242188 283.011719 234.816406 282.011719 234.171875 281.144531 C 233.53125 280.28125 232.6875 279.574219 231.714844 279.082031 C 230.742188 278.59375 229.664062 278.332031 228.570312 278.324219 C 227.472656 278.3125 226.390625 278.554688 225.410156 279.027344 L 215.925781 283.59375 L 183.492188 290.648438 L 169.59375 276.789062 L 161.613281 289.617188 L 180.363281 303.75 Z M 218.390625 291.894531 "/>
<path style=" stroke:none;fill-rule:nonzero;fill:rgb(25.489807%,18.03894%,18.486023%);fill-opacity:1;" d="M 216.507812 393.257812 L 204.660156 395.484375 C 196.566406 370.59375 187.796875 347.023438 187.800781 328.792969 C 176.347656 341.230469 162.144531 348.34375 145.417969 350.578125 L 147.242188 323.015625 L 160.914062 315.902344 L 181.835938 306.480469 C 183.667969 305.65625 185.644531 305.179688 187.660156 305.074219 C 191.574219 304.875 195.429688 306.09375 198.480469 308.5 C 201.53125 310.90625 203.5625 314.328125 204.183594 318.105469 Z M 216.507812 393.257812 "/>
<path style=" stroke:none;fill-rule:nonzero;fill:rgb(25.489807%,18.03894%,18.486023%);fill-opacity:1;" d="M 159.773438 347.246094 L 155.050781 350.746094 C 153.019531 352.253906 150.621094 353.214844 148.09375 353.535156 C 145.5625 353.855469 142.992188 353.527344 140.632812 352.578125 C 127.109375 342.6875 117.5 345.605469 108.792969 360.535156 C 98.34375 349.035156 95.769531 332.421875 105.089844 315.234375 L 156.8125 316.347656 L 167.292969 313.234375 Z M 159.773438 347.246094 "/>
<g clip-path="url(#clip4)" clip-rule="nonzero">
<path style=" stroke:none;fill-rule:nonzero;fill:rgb(25.489807%,18.03894%,18.486023%);fill-opacity:1;" d="M 142.546875 398.753906 C 139.585938 399.644531 136.394531 399.488281 133.539062 398.3125 C 130.679688 397.140625 128.335938 395.023438 126.917969 392.332031 C 122.273438 388.335938 118.351562 382.617188 114.949219 375.664062 C 112.507812 370.5625 110.410156 365.3125 108.675781 359.941406 C 106.320312 352.851562 110.257812 345.101562 117.582031 342.980469 C 117.800781 342.917969 118.019531 342.855469 118.242188 342.800781 C 128.023438 340.351562 138.0625 345.855469 141.40625 355.148438 L 151.125 382.175781 C 151.699219 383.773438 151.945312 385.460938 151.851562 387.152344 C 151.753906 388.839844 151.320312 390.496094 150.566406 392.019531 C 149.816406 393.546875 148.765625 394.910156 147.472656 396.039062 C 146.179688 397.167969 144.675781 398.039062 143.039062 398.597656 C 142.875 398.652344 142.710938 398.707031 142.546875 398.753906 Z M 142.546875 398.753906 "/>
</g>
<path style=" stroke:none;fill-rule:nonzero;fill:rgb(0%,0%,0%);fill-opacity:0.2;" d="M 113.292969 372.585938 C 113.292969 372.585938 124.683594 385.035156 126.964844 392.148438 Z M 113.292969 372.585938 "/>
<path style=" stroke:none;fill-rule:nonzero;fill:rgb(100%,72.155762%,72.155762%);fill-opacity:1;" d="M 69.109375 313.835938 L 65.296875 322.917969 C 64.910156 323.835938 64.734375 324.824219 64.78125 325.816406 C 64.828125 326.808594 65.09375 327.777344 65.566406 328.660156 C 66.035156 329.539062 66.699219 330.308594 67.503906 330.914062 C 68.308594 331.519531 69.242188 331.945312 70.234375 332.164062 C 71.304688 332.398438 72.414062 332.386719 73.476562 332.125 C 74.539062 331.863281 75.523438 331.363281 76.351562 330.664062 C 77.179688 329.964844 77.828125 329.085938 78.242188 328.097656 C 78.660156 327.109375 78.832031 326.039062 78.746094 324.972656 L 77.925781 314.6875 L 83.257812 282.683594 L 101.613281 275.246094 L 92.371094 263.253906 L 71.953125 274.988281 Z M 69.109375 313.835938 "/>
<path style=" stroke:none;fill-rule:nonzero;fill:rgb(45.489502%,72.547913%,100%);fill-opacity:1;" d="M 160.230469 315.234375 C 147.136719 336.691406 121.035156 345 98.679688 328.199219 C 102.613281 315.59375 115.308594 280.75 107.105469 279.417969 C 89.691406 286.542969 89.664062 269.8125 86.40625 261.441406 L 126.050781 247.214844 L 147.46875 252.992188 L 151.859375 254.511719 C 154.71875 255.5 157.195312 257.320312 158.960938 259.726562 C 160.726562 262.128906 161.695312 265.003906 161.738281 267.960938 C 152.742188 280.640625 146.082031 294.167969 160.230469 315.234375 Z M 160.230469 315.234375 "/>
<path style=" stroke:none;fill-rule:nonzero;fill:rgb(45.489502%,72.547913%,100%);fill-opacity:1;" d="M 165.242188 297.894531 L 149.519531 285.226562 L 154.761719 255.660156 L 176.179688 277.890625 Z M 165.242188 297.894531 "/>
<path style=" stroke:none;fill-rule:nonzero;fill:rgb(24.705505%,23.921204%,33.724976%);fill-opacity:1;" d="M 426.109375 94.792969 L 423.863281 94.792969 L 423.863281 34.75 C 423.863281 25.535156 420.109375 16.695312 413.429688 10.179688 C 406.75 3.660156 397.691406 0 388.246094 0 L 257.859375 0 C 248.410156 0 239.351562 3.660156 232.671875 10.179688 C 225.992188 16.695312 222.242188 25.535156 222.242188 34.75 L 222.242188 364.148438 C 222.242188 373.363281 225.992188 382.203125 232.671875 388.71875 C 239.351562 395.234375 248.410156 398.898438 257.859375 398.898438 L 388.242188 398.898438 C 397.691406 398.898438 406.75 395.234375 413.429688 388.71875 C 420.109375 382.203125 423.863281 373.363281 423.863281 364.148438 L 423.863281 137.53125 L 426.109375 137.53125 Z M 426.109375 94.792969 "/>
<path style=" stroke:none;fill-rule:nonzero;fill:rgb(100%,100%,100%);fill-opacity:1;" d="M 389.679688 9.039062 L 372.660156 9.039062 C 373.445312 10.914062 373.742188 12.945312 373.53125 14.957031 C 373.320312 16.96875 372.605469 18.898438 371.449219 20.574219 C 370.292969 22.253906 368.734375 23.628906 366.902344 24.578125 C 365.074219 25.53125 363.035156 26.027344 360.960938 26.027344 L 286.265625 26.027344 C 284.191406 26.027344 282.152344 25.53125 280.324219 24.578125 C 278.492188 23.628906 276.933594 22.253906 275.777344 20.574219 C 274.621094 18.898438 273.90625 16.96875 273.695312 14.957031 C 273.480469 12.945312 273.78125 10.914062 274.5625 9.042969 L 258.664062 9.042969 C 251.609375 9.042969 244.84375 11.777344 239.855469 16.644531 C 234.867188 21.507812 232.066406 28.109375 232.066406 34.992188 L 232.066406 363.90625 C 232.066406 370.789062 234.867188 377.386719 239.855469 382.253906 C 244.84375 387.121094 251.609375 389.855469 258.664062 389.855469 L 389.675781 389.855469 C 396.730469 389.855469 403.496094 387.121094 408.484375 382.253906 C 413.472656 377.386719 416.277344 370.789062 416.277344 363.90625 L 416.277344 34.992188 C 416.277344 28.109375 413.472656 21.507812 408.484375 16.640625 C 403.496094 11.773438 396.730469 9.039062 389.675781 9.039062 Z M 389.679688 9.039062 "/>
<path style=" stroke:none;fill-rule:nonzero;fill:rgb(90.194702%,90.194702%,90.194702%);fill-opacity:1;" d="M 324.398438 371.476562 C 332.464844 371.476562 339.003906 365.09375 339.003906 357.226562 C 339.003906 349.355469 332.464844 342.972656 324.398438 342.972656 C 316.332031 342.972656 309.792969 349.355469 309.792969 357.226562 C 309.792969 365.09375 316.332031 371.476562 324.398438 371.476562 Z M 324.398438 371.476562 "/>
<path style=" stroke:none;fill-rule:nonzero;fill:rgb(90.194702%,90.194702%,90.194702%);fill-opacity:1;" d="M 265.140625 225.433594 C 263.761719 225.433594 262.636719 226.6875 262.636719 228.222656 C 262.636719 229.761719 263.761719 231.011719 265.140625 231.011719 L 383.199219 231.011719 C 384.582031 231.011719 385.703125 229.761719 385.703125 228.222656 C 385.703125 226.6875 384.582031 225.433594 383.199219 225.433594 Z M 265.140625 225.433594 "/>
<path style=" stroke:none;fill-rule:nonzero;fill:rgb(90.194702%,90.194702%,90.194702%);fill-opacity:1;" d="M 265.140625 291.207031 C 263.761719 291.207031 262.636719 292.457031 262.636719 293.996094 C 262.636719 295.535156 263.761719 296.785156 265.140625 296.785156 L 383.199219 296.785156 C 384.582031 296.785156 385.703125 295.535156 385.703125 293.996094 C 385.703125 292.457031 384.582031 291.207031 383.199219 291.207031 Z M 265.140625 291.207031 "/>
<path style=" stroke:none;fill-rule:nonzero;fill:rgb(90.194702%,90.194702%,90.194702%);fill-opacity:1;" d="M 265.140625 242.167969 C 263.761719 242.167969 262.636719 243.417969 262.636719 244.957031 C 262.636719 246.492188 263.761719 247.746094 265.140625 247.746094 L 315.941406 247.746094 C 317.324219 247.746094 318.445312 246.492188 318.445312 244.957031 C 318.445312 243.417969 317.324219 242.167969 315.941406 242.167969 Z M 265.140625 242.167969 "/>
<path style=" stroke:none;fill-rule:nonzero;fill:rgb(90.194702%,90.194702%,90.194702%);fill-opacity:1;" d="M 265.140625 258.117188 C 263.761719 258.117188 262.636719 259.367188 262.636719 260.90625 C 262.636719 262.441406 263.761719 263.691406 265.140625 263.691406 L 383.199219 263.691406 C 384.582031 263.691406 385.703125 262.441406 385.703125 260.90625 C 385.703125 259.367188 384.582031 258.117188 383.199219 258.117188 Z M 265.140625 258.117188 "/>
<path style=" stroke:none;fill-rule:nonzero;fill:rgb(90.194702%,90.194702%,90.194702%);fill-opacity:1;" d="M 265.140625 274.847656 C 263.761719 274.847656 262.636719 276.097656 262.636719 277.636719 C 262.636719 279.175781 263.761719 280.425781 265.140625 280.425781 L 315.941406 280.425781 C 317.324219 280.425781 318.445312 279.175781 318.445312 277.636719 C 318.445312 276.097656 317.324219 274.847656 315.941406 274.847656 Z M 265.140625 274.847656 "/>
<path style=" stroke:none;fill-rule:nonzero;fill:rgb(45.489502%,72.547913%,100%);fill-opacity:1;" d="M 287.429688 98.453125 L 360.917969 98.453125 C 361.730469 98.457031 362.511719 98.769531 363.082031 99.332031 C 363.65625 99.890625 363.980469 100.648438 363.980469 101.441406 L 363.980469 176.113281 C 363.980469 176.90625 363.65625 177.664062 363.082031 178.226562 C 362.511719 178.785156 361.730469 179.101562 360.917969 179.101562 L 287.429688 179.101562 C 286.617188 179.101562 285.839844 178.785156 285.265625 178.226562 C 284.691406 177.664062 284.367188 176.90625 284.367188 176.113281 L 284.367188 101.441406 C 284.367188 100.648438 284.691406 99.890625 285.265625 99.332031 C 285.839844 98.769531 286.617188 98.457031 287.429688 98.453125 Z M 287.429688 98.453125 "/>
<path style=" stroke:none;fill-rule:nonzero;fill:rgb(100%,100%,100%);fill-opacity:1;" d="M 345.261719 163.703125 C 345.535156 163.703125 345.804688 163.652344 346.058594 163.550781 C 346.308594 163.449219 346.539062 163.300781 346.734375 163.109375 C 346.925781 162.921875 347.078125 162.699219 347.183594 162.453125 C 347.289062 162.207031 347.34375 161.941406 347.34375 161.675781 C 347.34375 161.410156 347.289062 161.144531 347.183594 160.898438 C 347.082031 160.652344 346.925781 160.429688 346.734375 160.238281 C 346.539062 160.050781 346.3125 159.902344 346.058594 159.800781 C 345.804688 159.699219 345.535156 159.644531 345.261719 159.644531 L 303.089844 159.644531 C 302.816406 159.644531 302.542969 159.699219 302.292969 159.800781 C 302.039062 159.902344 301.808594 160.050781 301.617188 160.238281 C 301.421875 160.425781 301.269531 160.652344 301.164062 160.898438 C 301.058594 161.144531 301.003906 161.40625 301.003906 161.671875 C 301.003906 161.941406 301.058594 162.203125 301.164062 162.449219 C 301.269531 162.695312 301.421875 162.921875 301.613281 163.109375 C 301.808594 163.296875 302.039062 163.445312 302.289062 163.550781 C 302.542969 163.652344 302.8125 163.703125 303.085938 163.703125 Z M 345.261719 163.703125 "/>
<path style=" stroke:none;fill-rule:nonzero;fill:rgb(100%,100%,100%);fill-opacity:1;" d="M 345.261719 151.753906 C 345.8125 151.753906 346.339844 151.539062 346.730469 151.160156 C 347.121094 150.777344 347.339844 150.261719 347.339844 149.726562 C 347.339844 149.1875 347.121094 148.671875 346.730469 148.289062 C 346.339844 147.910156 345.8125 147.695312 345.261719 147.695312 L 303.089844 147.695312 C 302.535156 147.695312 302.007812 147.910156 301.617188 148.289062 C 301.226562 148.671875 301.007812 149.1875 301.007812 149.722656 C 301.007812 150.261719 301.226562 150.777344 301.617188 151.160156 C 302.007812 151.539062 302.535156 151.753906 303.085938 151.753906 Z M 345.261719 151.753906 "/>
<path style=" stroke:none;fill-rule:nonzero;fill:rgb(100%,100%,100%);fill-opacity:1;" d="M 324.175781 113.851562 C 326.761719 113.851562 329.292969 114.601562 331.445312 116.003906 C 333.597656 117.40625 335.273438 119.402344 336.265625 121.734375 C 337.253906 124.066406 337.511719 126.632812 337.007812 129.109375 C 336.503906 131.585938 335.257812 133.863281 333.425781 135.648438 C 331.597656 137.433594 329.265625 138.648438 326.726562 139.140625 C 324.1875 139.632812 321.558594 139.382812 319.167969 138.414062 C 316.773438 137.449219 314.730469 135.8125 313.292969 133.710938 C 311.855469 131.613281 311.089844 129.144531 311.089844 126.621094 C 311.09375 123.234375 312.472656 119.988281 314.925781 117.597656 C 317.378906 115.203125 320.703125 113.855469 324.175781 113.851562 Z M 324.175781 113.851562 "/>
<path style=" stroke:none;fill-rule:nonzero;fill:rgb(25.489807%,18.03894%,18.486023%);fill-opacity:1;" d="M 157.210938 243.34375 L 118.363281 243.34375 C 117.5625 243.339844 116.796875 243.03125 116.230469 242.480469 C 115.667969 241.929688 115.347656 241.179688 115.347656 240.402344 L 115.347656 224.066406 C 115.347656 218.257812 117.710938 212.691406 121.921875 208.585938 C 126.128906 204.480469 131.835938 202.171875 137.785156 202.171875 C 143.738281 202.171875 149.445312 204.480469 153.652344 208.585938 C 157.859375 212.691406 160.222656 218.257812 160.222656 224.066406 L 160.222656 240.402344 C 160.222656 241.179688 159.90625 241.929688 159.339844 242.480469 C 158.777344 243.03125 158.007812 243.339844 157.210938 243.34375 Z M 157.210938 243.34375 "/>
<path style=" stroke:none;fill-rule:nonzero;fill:rgb(100%,71.37146%,71.37146%);fill-opacity:1;" d="M 156.511719 234.007812 C 160.867188 226.230469 157.9375 216.476562 149.964844 212.226562 C 141.992188 207.972656 132 210.832031 127.640625 218.609375 C 123.28125 226.386719 126.210938 236.140625 134.183594 240.390625 C 142.15625 244.644531 152.152344 241.785156 156.511719 234.007812 Z M 156.511719 234.007812 "/>
<path style=" stroke:none;fill-rule:nonzero;fill:rgb(25.489807%,18.03894%,18.486023%);fill-opacity:1;" d="M 165.53125 225.699219 L 141.777344 225.699219 L 141.535156 222.371094 L 140.316406 225.699219 L 136.660156 225.699219 L 136.175781 219.105469 L 133.761719 225.699219 L 126.683594 225.699219 L 126.683594 225.371094 C 126.691406 220.78125 128.5625 216.378906 131.890625 213.132812 C 135.214844 209.886719 139.726562 208.058594 144.433594 208.054688 L 147.78125 208.054688 C 152.488281 208.058594 157 209.886719 160.328125 213.132812 C 163.65625 216.378906 165.527344 220.78125 165.53125 225.371094 Z M 165.53125 225.699219 "/>
<path style=" stroke:none;fill-rule:nonzero;fill:rgb(25.489807%,18.03894%,18.486023%);fill-opacity:1;" d="M 141.582031 246.390625 C 141.40625 246.390625 141.226562 246.375 141.050781 246.347656 L 123.65625 243.351562 L 123.65625 215.304688 L 142.804688 215.304688 L 142.328125 215.84375 C 135.734375 223.347656 140.703125 235.519531 144.25 242.101562 C 144.511719 242.585938 144.628906 243.128906 144.589844 243.675781 C 144.546875 244.21875 144.347656 244.742188 144.015625 245.179688 C 143.738281 245.554688 143.371094 245.859375 142.949219 246.070312 C 142.527344 246.28125 142.058594 246.390625 141.582031 246.390625 Z M 141.582031 246.390625 "/>
<path style=" stroke:none;fill-rule:nonzero;fill:rgb(25.489807%,18.03894%,18.486023%);fill-opacity:1;" d="M 199.496094 384.867188 L 220.957031 384.863281 C 224.585938 384.863281 228.0625 386.269531 230.628906 388.773438 C 233.191406 391.273438 234.632812 394.667969 234.632812 398.207031 L 234.632812 398.640625 L 199.496094 398.640625 Z M 199.496094 384.867188 "/>
</g>
</svg>
